<svg width="60" height="86" viewBox="0 0 60 86" fill="none" xmlns="http://www.w3.org/2000/svg" xmlns:xlink="http://www.w3.org/1999/xlink">
<path d="M3,34.938C3.796,34.938 4.559,35.221 5.121,35.725C5.684,36.229 6,36.912 6,37.625L6,43C6,48.702 8.529,54.171 13.029,58.203C17.53,62.235 23.635,64.5 30,64.5C36.365,64.5 42.47,62.235 46.971,58.203C51.471,54.171 54,48.702 54,43L54,37.625C54,36.912 54.316,36.229 54.879,35.725C55.441,35.221 56.204,34.938 57,34.938C57.796,34.938 58.559,35.221 59.121,35.725C59.684,36.229 60,36.912 60,37.625L60,43C60,49.662 57.238,56.088 52.249,61.029C47.26,65.97 40.4,69.074 33,69.741L33,80.625L51,80.625C51.796,80.625 52.559,80.908 53.121,81.412C53.684,81.916 54,82.6 54,83.313C54,84.025 53.684,84.709 53.121,85.213C52.559,85.717 51.796,86 51,86L9,86C8.204,86 7.441,85.717 6.879,85.213C6.316,84.709 6,84.025 6,83.313C6,82.6 6.316,81.916 6.879,81.412C7.441,80.908 8.204,80.625 9,80.625L27,80.625L27,69.741C19.6,69.074 12.74,65.97 7.751,61.029C2.762,56.088 0,49.662 0,43L0,37.625C0,36.912 0.316,36.229 0.879,35.725C1.441,35.221 2.204,34.938 3,34.938Z" fill="#A09C9C"/>
<path d="M42,43C42,45.851 40.736,48.585 38.485,50.601C36.235,52.617 33.183,53.75 30,53.75C26.817,53.75 23.765,52.617 21.515,50.601C19.264,48.585 18,45.851 18,43L18,16.125C18,13.274 19.264,10.54 21.515,8.524C23.765,6.508 26.817,5.375 30,5.375C33.183,5.375 36.235,6.508 38.485,8.524C40.736,10.54 42,13.274 42,16.125L42,43ZM30,0C25.226,0 20.648,1.699 17.272,4.723C13.896,7.747 12,11.848 12,16.125L12,43C12,47.277 13.896,51.378 17.272,54.402C20.648,57.426 25.226,59.125 30,59.125C34.774,59.125 39.352,57.426 42.728,54.402C46.104,51.378 48,47.277 48,43L48,16.125C48,11.848 46.104,7.747 42.728,4.723C39.352,1.699 34.774,0 30,0Z" fill="#A09C9C"/>
</svg>
