<svg width="38" height="42" viewBox="0 0 38 42" fill="none" xmlns="http://www.w3.org/2000/svg" xmlns:xlink="http://www.w3.org/1999/xlink">
<path d="M0.376,0.41C0.773,-0.011 1.312,-0.248 1.873,-0.248C2.435,-0.248 2.973,-0.011 3.371,0.41L37.278,36.41C37.486,36.616 37.653,36.864 37.769,37.14C37.885,37.416 37.947,37.714 37.952,38.016C37.957,38.319 37.905,38.619 37.798,38.899C37.692,39.179 37.533,39.433 37.332,39.647C37.131,39.861 36.891,40.029 36.627,40.142C36.363,40.256 36.081,40.311 35.796,40.306C35.512,40.3 35.231,40.234 34.971,40.111C34.711,39.988 34.477,39.811 34.283,39.59L0.376,3.59C-0.021,3.168 -0.244,2.596 -0.244,2C-0.244,1.404 -0.021,0.832 0.376,0.41Z" clip-rule="evenodd" fill-rule="evenodd" fill="#A09C9C"/>
<path d="M37.278,0.41C37.675,0.832 37.898,1.404 37.898,2C37.898,2.596 37.675,3.168 37.278,3.59L3.371,39.59C2.969,39.987 2.438,40.204 1.888,40.194C1.339,40.183 0.816,39.947 0.427,39.535C0.039,39.123 -0.183,38.566 -0.193,37.984C-0.203,37.401 0.001,36.837 0.375,36.41L34.283,0.41C34.68,-0.011 35.219,-0.248 35.78,-0.248C36.342,-0.248 36.881,-0.011 37.278,0.41Z" clip-rule="evenodd" fill-rule="evenodd" fill="#A09C9C"/>
</svg>
