<svg width="38" height="42" viewBox="0 0 38 42" fill="none" xmlns="http://www.w3.org/2000/svg" xmlns:xlink="http://www.w3.org/1999/xlink">
<path d="M0.376,0.41C0.773,-0.011 1.312,-0.248 1.874,-0.248C2.435,-0.248 2.974,-0.011 3.371,0.41L37.279,36.41C37.487,36.616 37.654,36.864 37.77,37.14C37.886,37.416 37.948,37.714 37.953,38.016C37.958,38.319 37.906,38.619 37.799,38.899C37.693,39.179 37.534,39.433 37.333,39.647C37.131,39.861 36.892,40.029 36.628,40.142C36.364,40.256 36.081,40.311 35.797,40.306C35.512,40.3 35.232,40.234 34.972,40.111C34.712,39.988 34.478,39.811 34.284,39.59L0.376,3.59C-0.021,3.168 -0.244,2.596 -0.244,2C-0.244,1.404 -0.021,0.832 0.376,0.41Z" clip-rule="evenodd" fill-rule="evenodd" fill="#A09C9C"/>
<path d="M37.279,0.41C37.676,0.832 37.899,1.404 37.899,2C37.899,2.596 37.676,3.168 37.279,3.59L3.371,39.59C2.97,39.987 2.438,40.204 1.889,40.194C1.34,40.183 0.816,39.947 0.428,39.535C0.04,39.123 -0.183,38.566 -0.192,37.984C-0.202,37.401 0.002,36.837 0.376,36.41L34.284,0.41C34.681,-0.011 35.22,-0.248 35.781,-0.248C36.343,-0.248 36.881,-0.011 37.279,0.41Z" clip-rule="evenodd" fill-rule="evenodd" fill="#A09C9C"/>
</svg>
