<svg width="38" height="24" viewBox="0 0 38 24" fill="none" xmlns="http://www.w3.org/2000/svg" xmlns:xlink="http://www.w3.org/1999/xlink">
<path d="M20.099,6C20.099,4.895 20.994,4 22.099,4L24.099,4C25.203,4 26.099,4.895 26.099,6L26.099,22C26.099,23.105 25.203,24 24.099,24L22.099,24C20.994,24 20.099,23.105 20.099,22L20.099,6Z" fill="#000000"/>
<path d="M30.099,2C30.099,0.895 30.994,0 32.099,0L34.099,0C35.203,0 36.099,0.895 36.099,2L36.099,22C36.099,23.105 35.203,24 34.099,24L32.099,24C30.994,24 30.099,23.105 30.099,22L30.099,2Z" fill="#000000"/>
<path d="M10.099,13C10.099,11.895 10.994,11 12.099,11L14.099,11C15.203,11 16.099,11.895 16.099,13L16.099,22C16.099,23.105 15.203,24 14.099,24L12.099,24C10.994,24 10.099,23.105 10.099,22L10.099,13Z" fill="#000000"/>
<path d="M0.099,18C0.099,16.895 0.994,16 2.099,16L4.099,16C5.203,16 6.099,16.895 6.099,18L6.099,22C6.099,23.105 5.203,24 4.099,24L2.099,24C0.994,24 0.099,23.105 0.099,22L0.099,18Z" fill="#000000"/>
</svg>
