<svg width="42" height="42" viewBox="0 0 42 42" fill="none" xmlns="http://www.w3.org/2000/svg" xmlns:xlink="http://www.w3.org/1999/xlink">
<path d="M21,42C16.847,42 12.786,40.768 9.333,38.461C5.88,36.153 3.188,32.874 1.599,29.036C0.009,25.199 -0.407,20.977 0.404,16.903C1.214,12.83 3.214,9.088 6.151,6.151C9.088,3.214 12.83,1.214 16.903,0.404C20.977,-0.407 25.199,0.009 29.036,1.599C32.874,3.188 36.153,5.88 38.461,9.333C40.768,12.786 42,16.847 42,21C42,26.57 39.788,31.911 35.849,35.849C31.911,39.788 26.57,42 21,42ZM21,4.2C17.677,4.2 14.429,5.185 11.666,7.031C8.904,8.877 6.75,11.501 5.479,14.571C4.207,17.641 3.875,21.019 4.523,24.278C5.171,27.536 6.771,30.53 9.121,32.879C11.47,35.229 14.464,36.829 17.722,37.477C20.981,38.125 24.359,37.793 27.429,36.521C30.499,35.25 33.123,33.096 34.969,30.334C36.815,27.571 37.8,24.323 37.8,21C37.8,16.544 36.03,12.271 32.879,9.121C29.729,5.97 25.456,4.2 21,4.2Z" fill="#FFFFFF"/>
</svg>
