<svg width="56" height="26" viewBox="0 0 56 26" fill="none" xmlns="http://www.w3.org/2000/svg" xmlns:xlink="http://www.w3.org/1999/xlink">
<g opacity="0.35" style="isolation:isolate">
<path d="M0.099,8C0.099,3.582 3.681,0 8.099,0L42.099,0C46.517,0 50.099,3.582 50.099,8L50.099,18C50.099,22.418 46.517,26 42.099,26L8.099,26C3.681,26 0.099,22.418 0.099,18L0.099,8Z" clip-rule="evenodd" fill-rule="evenodd" stroke="#000000" stroke-width="1" stroke-miterlimit="3.999327"/>
</g>
<g opacity="0.4" style="isolation:isolate">
<path d="M52.099,10L52.099,18.441C53.797,17.726 54.901,16.063 54.901,14.22C54.901,12.378 53.797,10.715 52.099,10Z" fill="#000000"/>
</g>
<path d="M4.099,8C4.099,5.791 5.89,4 8.099,4L42.099,4C44.308,4 46.099,5.791 46.099,8L46.099,18C46.099,20.209 44.308,22 42.099,22L8.099,22C5.89,22 4.099,20.209 4.099,18L4.099,8Z" fill="#000000"/>
</svg>
