<svg width="26" height="30" viewBox="0 0 26 30" fill="none" xmlns="http://www.w3.org/2000/svg" xmlns:xlink="http://www.w3.org/1999/xlink">
<path d="M25.404,0.868C25.232,0.593 25.028,0.375 24.802,0.226C24.577,0.077 24.335,0 24.091,0C23.847,0 23.605,0.077 23.379,0.226C23.154,0.375 22.949,0.593 22.777,0.868L8.995,22.763L3.204,13.547C3.026,13.274 2.815,13.058 2.584,12.914C2.353,12.77 2.106,12.699 1.858,12.706C1.61,12.712 1.365,12.797 1.137,12.954C0.909,13.111 0.703,13.337 0.531,13.621C0.358,13.904 0.223,14.238 0.132,14.605C0.041,14.971 -0.004,15.362 0,15.756C0.005,16.15 0.058,16.539 0.157,16.9C0.256,17.261 0.398,17.588 0.577,17.862L7.681,29.132C7.853,29.407 8.058,29.625 8.283,29.774C8.509,29.923 8.75,30 8.995,30C9.239,30 9.481,29.923 9.706,29.774C9.932,29.625 10.136,29.407 10.308,29.132L25.404,5.183C25.592,4.908 25.742,4.574 25.845,4.203C25.947,3.832 26,3.431 26,3.025C26,2.62 25.947,2.219 25.845,1.848C25.742,1.477 25.592,1.143 25.404,0.868Z" fill="#FFFFFF"/>
</svg>
