<svg width="48" height="40" viewBox="0 0 48 40" fill="none" xmlns="http://www.w3.org/2000/svg" xmlns:xlink="http://www.w3.org/1999/xlink">
<path d="M43.667,35C44.325,35.001 44.958,35.245 45.437,35.682C45.916,36.12 46.204,36.717 46.243,37.353C46.281,37.99 46.067,38.616 45.645,39.105C45.222,39.593 44.623,39.907 43.969,39.982L43.667,40L2.333,40C1.675,39.999 1.042,39.755 0.563,39.318C0.084,38.88 -0.204,38.283 -0.243,37.647C-0.281,37.01 -0.067,36.384 0.355,35.895C0.778,35.407 1.377,35.093 2.031,35.018L2.333,35L43.667,35ZM43.667,17.5C44.352,17.5 45.009,17.763 45.493,18.232C45.978,18.701 46.25,19.337 46.25,20C46.25,20.663 45.978,21.299 45.493,21.768C45.009,22.237 44.352,22.5 43.667,22.5L2.333,22.5C1.648,22.5 0.991,22.237 0.507,21.768C0.022,21.299 -0.25,20.663 -0.25,20C-0.25,19.337 0.022,18.701 0.507,18.232C0.991,17.763 1.648,17.5 2.333,17.5L43.667,17.5ZM43.667,0C44.352,0 45.009,0.263 45.493,0.732C45.978,1.201 46.25,1.837 46.25,2.5C46.25,3.163 45.978,3.799 45.493,4.268C45.009,4.737 44.352,5 43.667,5L2.333,5C1.648,5 0.991,4.737 0.507,4.268C0.022,3.799 -0.25,3.163 -0.25,2.5C-0.25,1.837 0.022,1.201 0.507,0.732C0.991,0.263 1.648,0 2.333,0L43.667,0Z" fill="#A6E1C5"/>
</svg>
