<svg width="44" height="44" viewBox="0 0 44 44" fill="none" xmlns="http://www.w3.org/2000/svg" xmlns:xlink="http://www.w3.org/1999/xlink">
<path d="M22,33C24.917,33 27.715,31.841 29.778,29.778C31.841,27.715 33,24.917 33,22C33,19.083 31.841,16.285 29.778,14.222C27.715,12.159 24.917,11 22,11C19.083,11 16.285,12.159 14.222,14.222C12.159,16.285 11,19.083 11,22C11,24.917 12.159,27.715 14.222,29.778C16.285,31.841 19.083,33 22,33ZM22,0C19.111,0 16.25,0.569 13.581,1.675C10.912,2.78 8.487,4.401 6.444,6.444C4.401,8.487 2.78,10.912 1.675,13.581C0.569,16.25 0,19.111 0,22C0,24.889 0.569,27.75 1.675,30.419C2.78,33.088 4.401,35.513 6.444,37.556C8.487,39.599 10.912,41.22 13.581,42.325C16.25,43.431 19.111,44 22,44C27.835,44 33.431,41.682 37.556,37.556C41.682,33.431 44,27.835 44,22C44,16.165 41.682,10.569 37.556,6.444C33.431,2.318 27.835,0 22,0ZM3.667,22C3.667,17.138 5.598,12.475 9.036,9.036C12.475,5.598 17.138,3.667 22,3.667C26.862,3.667 31.525,5.598 34.964,9.036C38.402,12.475 40.333,17.138 40.333,22C40.333,26.862 38.402,31.525 34.964,34.964C31.525,38.402 26.862,40.333 22,40.333C17.138,40.333 12.475,38.402 9.036,34.964C5.598,31.525 3.667,26.862 3.667,22Z" fill="#FFFFFF"/>
</svg>
