<svg width="22" height="14" viewBox="0 0 22 14" fill="none" xmlns="http://www.w3.org/2000/svg" xmlns:xlink="http://www.w3.org/1999/xlink">
<path d="M21.428,3.4C22.201,2.612 22.189,1.346 21.4,0.572C20.612,-0.201 19.346,-0.189 18.572,0.6L21.428,3.4ZM11,11.177L9.572,12.577C9.948,12.96 10.463,13.177 11,13.177C11.537,13.177 12.052,12.96 12.428,12.577L11,11.177ZM3.428,0.6C2.654,-0.189 1.388,-0.201 0.6,0.572C-0.189,1.346 -0.201,2.612 0.572,3.4L3.428,0.6ZM18.572,0.6L9.572,9.776L12.428,12.577L21.428,3.4L18.572,0.6ZM12.428,9.776L3.428,0.6L0.572,3.4L9.572,12.577L12.428,9.776Z" transform="rotate(-360 11 6.588)" fill="#A09C9C"/>
</svg>
