<svg width="80" height="94" viewBox="0 0 80 94" fill="none" xmlns="http://www.w3.org/2000/svg" xmlns:xlink="http://www.w3.org/1999/xlink">
<path d="M5,69.765C5,68.108 3.657,66.765 2,66.765C0.343,66.765 -1,68.108 -1,69.765L5,69.765ZM2,79.882L-1,79.882L2,79.882ZM79,69.765C79,68.108 77.657,66.765 76,66.765C74.343,66.765 73,68.108 73,69.765L79,69.765ZM13.661,27.27C12.543,28.493 12.628,30.39 13.851,31.508C15.074,32.626 16.971,32.541 18.089,31.318L13.661,27.27ZM39,4L41.214,1.976C40.646,1.354 39.842,1 39,1C38.158,1 37.354,1.354 36.786,1.976L39,4ZM59.911,31.318C61.029,32.541 62.926,32.626 64.149,31.508C65.372,30.39 65.457,28.493 64.339,27.27L59.911,31.318ZM36,64.706C36,66.363 37.343,67.706 39,67.706C40.657,67.706 42,66.363 42,64.706L36,64.706ZM-1,69.765L-1,79.882L5,79.882L5,69.765L-1,69.765ZM-1,79.882C-1,83.279 0.231,86.584 2.495,89.061L6.923,85.012C5.718,83.694 5,81.853 5,79.882L-1,79.882ZM2.495,89.061C4.767,91.546 7.91,93 11.25,93L11.25,87C9.684,87 8.121,86.322 6.923,85.012L2.495,89.061ZM11.25,93L66.75,93L66.75,87L11.25,87L11.25,93ZM66.75,93C70.09,93 73.233,91.546 75.505,89.061L71.077,85.012C69.879,86.322 68.316,87 66.75,87L66.75,93ZM75.505,89.061C77.769,86.584 79,83.279 79,79.882L73,79.882C73,81.853 72.282,83.694 71.077,85.012L75.505,89.061ZM79,79.882L79,69.765L73,69.765L73,79.882L79,79.882ZM18.089,31.318L41.214,6.024L36.786,1.976L13.661,27.27L18.089,31.318ZM36.786,6.024L59.911,31.318L64.339,27.27L41.214,1.976L36.786,6.024ZM36,4L36,64.706L42,64.706L42,4L36,4Z" fill="#A09C9C"/>
</svg>
