<svg width="28" height="28" viewBox="0 0 28 28" fill="none" xmlns="http://www.w3.org/2000/svg" xmlns:xlink="http://www.w3.org/1999/xlink">
<path d="M2,12.5C1.172,12.5 0.5,13.172 0.5,14C0.5,14.828 1.172,15.5 2,15.5L2,12.5ZM26,15.5C26.828,15.5 27.5,14.828 27.5,14C27.5,13.172 26.828,12.5 26,12.5L26,15.5ZM15.5,2C15.5,1.172 14.828,0.5 14,0.5C13.172,0.5 12.5,1.172 12.5,2L15.5,2ZM12.5,26C12.5,26.828 13.172,27.5 14,27.5C14.828,27.5 15.5,26.828 15.5,26L12.5,26ZM2,15.5L14,15.5L14,12.5L2,12.5L2,15.5ZM26,12.5L14,12.5L14,15.5L26,15.5L26,12.5ZM15.5,14L15.5,2L12.5,2L12.5,14L15.5,14ZM12.5,14L12.5,26L15.5,26L15.5,14L12.5,14Z" fill="#FFFFFF"/>
</svg>
