<svg width="22" height="14" viewBox="0 0 22 14" fill="none" xmlns="http://www.w3.org/2000/svg" xmlns:xlink="http://www.w3.org/1999/xlink">
<path d="M21.428,4.224C22.201,3.435 22.189,2.169 21.4,1.395C20.612,0.622 19.346,0.634 18.572,1.423L21.428,4.224ZM11,12L9.572,13.4C9.948,13.784 10.463,14 11,14C11.537,14 12.052,13.784 12.428,13.4L11,12ZM3.428,1.423C2.654,0.634 1.388,0.622 0.6,1.395C-0.189,2.169 -0.201,3.435 0.572,4.224L3.428,1.423ZM18.572,1.423L9.572,10.599L12.428,13.4L21.428,4.224L18.572,1.423ZM12.428,10.599L3.428,1.423L0.572,4.224L9.572,13.4L12.428,10.599Z" fill="#A09C9C"/>
</svg>
