<svg width="40" height="38" viewBox="0 0 40 38" fill="none" xmlns="http://www.w3.org/2000/svg" xmlns:xlink="http://www.w3.org/1999/xlink">
<path d="M17,-0.167C14.289,-0.166 11.617,0.455 9.208,1.646C6.799,2.837 4.722,4.563 3.15,6.679C1.578,8.796 0.558,11.242 0.173,13.814C-0.212,16.385 0.051,19.008 0.939,21.462C1.827,23.917 3.315,26.132 5.278,27.924C7.241,29.715 9.623,31.031 12.225,31.76C14.826,32.49 17.572,32.613 20.234,32.119C22.895,31.625 25.394,30.529 27.524,28.921L34.828,35.92C35.205,36.27 35.71,36.463 36.234,36.458C36.759,36.454 37.26,36.252 37.631,35.897C38.002,35.542 38.212,35.061 38.217,34.558C38.221,34.056 38.02,33.572 37.656,33.21L30.352,26.211C32.328,23.808 33.558,20.921 33.902,17.88C34.246,14.839 33.689,11.767 32.296,9.014C30.903,6.262 28.729,3.941 26.024,2.318C23.319,0.694 20.191,-0.167 17,-0.167ZM4,16.125C4,12.821 5.369,9.652 7.807,7.316C10.245,4.979 13.552,3.667 17,3.667C20.447,3.667 23.754,4.979 26.192,7.316C28.63,9.652 30,12.821 30,16.125C30,19.429 28.63,22.598 26.192,24.934C23.754,27.271 20.447,28.583 17,28.583C13.552,28.583 10.245,27.271 7.807,24.934C5.369,22.598 4,19.429 4,16.125Z" clip-rule="evenodd" fill-rule="evenodd" fill="#A09C9C"/>
</svg>
