<svg width="36" height="24" viewBox="0 0 36 24" fill="none" xmlns="http://www.w3.org/2000/svg" xmlns:xlink="http://www.w3.org/1999/xlink">
<path d="M17.1,5.175C22.033,5.175 26.777,7.11 30.353,10.58C30.622,10.847 31.052,10.844 31.317,10.572L33.891,7.921C34.025,7.783 34.1,7.596 34.099,7.402C34.098,7.207 34.021,7.021 33.885,6.885C24.501,-2.295 9.697,-2.295 0.313,6.885C0.177,7.021 0.1,7.207 0.099,7.401C0.098,7.596 0.172,7.783 0.306,7.921L2.881,10.572C3.146,10.845 3.576,10.848 3.845,10.58C7.421,7.11 12.166,5.175 17.1,5.175ZM17.171,13.179C19.881,13.179 22.495,14.207 24.504,16.064C24.776,16.328 25.204,16.322 25.469,16.051L28.039,13.4C28.175,13.261 28.25,13.072 28.248,12.876C28.246,12.68 28.167,12.493 28.029,12.357C21.911,6.548 12.436,6.548 6.318,12.357C6.18,12.493 6.101,12.68 6.099,12.876C6.097,13.072 6.172,13.261 6.308,13.4L8.878,16.051C9.143,16.322 9.571,16.328 9.843,16.064C11.85,14.208 14.462,13.18 17.171,13.179ZM22.398,18.353C22.402,18.55 22.326,18.74 22.189,18.877L17.742,23.458C17.612,23.592 17.434,23.668 17.249,23.668C17.063,23.668 16.885,23.592 16.755,23.458L12.308,18.877C12.17,18.739 12.095,18.55 12.099,18.353C12.103,18.157 12.186,17.971 12.329,17.839C15.169,15.387 19.328,15.387 22.168,17.839C22.311,17.971 22.394,18.157 22.398,18.353Z" clip-rule="evenodd" fill-rule="evenodd" fill="#000000"/>
</svg>
